<svg width="217" height="201" viewBox="0 0 217 201" fill="none" xmlns="http://www.w3.org/2000/svg">
<path d="M67.7163 23.6318C85.7509 -7.62941 130.865 -7.64453 148.92 23.6045L210.366 129.948C227.467 159.545 208.149 196.161 175.396 199.962C175.227 191.898 172.733 184.048 168.203 177.36C163.509 170.432 156.847 165.07 149.076 161.965L134.086 155.969C132.333 155.269 130.829 154.06 129.769 152.497C128.709 150.934 128.141 149.09 128.139 147.202L128.136 138.225C136.705 132.24 142.306 122.316 142.302 111.07L142.295 92.1709C142.294 87.8276 141.437 83.5268 139.774 79.5146C138.11 75.5025 135.672 71.8573 132.6 68.7871C129.528 65.7169 125.881 63.2819 121.868 61.6211C117.854 59.9603 113.553 59.106 109.209 59.1074C104.866 59.109 100.566 59.9665 96.5542 61.6299C92.542 63.2934 88.8959 65.7305 85.8257 68.8027C82.7557 71.8749 80.3214 75.522 78.6606 79.5352C76.9999 83.5485 76.1455 87.85 76.147 92.1934L76.1528 111.093C76.1535 116.425 77.444 121.679 79.9136 126.405C82.3833 131.132 85.96 135.191 90.3374 138.237L90.3403 147.215C90.3397 149.103 89.7731 150.947 88.7144 152.511C87.6554 154.074 86.1522 155.285 84.3989 155.986L69.4136 161.992C61.6449 165.102 54.986 170.469 50.2974 177.4C45.7397 184.138 43.2475 192.053 43.1157 200.177C9.30216 197.529 -11.0406 160.151 6.34326 130.018L67.7163 23.6318Z" fill="#5331C0"/>
<rect x="38.667" y="174.932" width="37.9309" height="138.62" transform="rotate(-90.0194 38.667 174.932)" fill="#5331C0"/>
</svg>
